<svg width="100" height="100" viewBox="0 0 100 100" fill="none" xmlns="http://www.w3.org/2000/svg">
<circle cx="50" cy="50" r="50" fill="#F0F600"/>
<path d="M25.83 72.792C21.21 72.792 17.536 71.67 14.808 69.426C12.08 67.182 10.254 64.19 9.32999 60.45L18.9 56.952C19.164 58.184 19.56 59.394 20.088 60.582C20.66 61.726 21.408 62.672 22.332 63.42C23.3 64.168 24.466 64.542 25.83 64.542C28.03 64.542 29.702 63.86 30.846 62.496C32.034 61.088 32.628 58.624 32.628 55.104V27.912H43.056V55.104C43.056 60.604 41.582 64.938 38.634 68.106C35.73 71.23 31.462 72.792 25.83 72.792Z" fill="#0E131F"/>
<path d="M70.2856 72.792C65.7096 72.792 61.7716 71.868 58.4716 70.02C55.1716 68.172 52.6416 65.532 50.8816 62.1C49.1216 58.668 48.2416 54.62 48.2416 49.956C48.2416 45.292 49.1436 41.266 50.9476 37.878C52.7956 34.446 55.3916 31.806 58.7356 29.958C62.0796 28.066 66.0176 27.12 70.5496 27.12C74.7296 27.12 78.3596 28.044 81.4396 29.892C84.5636 31.74 86.9616 34.226 88.6336 37.35L79.3936 40.716C78.4256 38.912 77.1056 37.636 75.4336 36.888C73.7616 36.096 72.0236 35.7 70.2196 35.7C68.1956 35.7 66.3476 36.272 64.6756 37.416C63.0036 38.516 61.6836 40.144 60.7156 42.3C59.7476 44.412 59.2636 46.964 59.2636 49.956C59.2636 54.576 60.3196 58.118 62.4316 60.582C64.5876 63.002 67.2276 64.212 70.3516 64.212C72.0236 64.212 73.7396 63.86 75.4996 63.156C77.3036 62.452 78.7116 61.154 79.7236 59.262L88.8976 62.628C87.1376 65.752 84.6296 68.238 81.3736 70.086C78.1616 71.89 74.4656 72.792 70.2856 72.792Z" fill="#0E131F"/>
</svg>
